<?xml version="1.0" standalone="no"?>
<!DOCTYPE svg PUBLIC "-//W3C//DTD SVG 20010904//EN"
 "http://www.w3.org/TR/2001/REC-SVG-20010904/DTD/svg10.dtd">
<svg version="1.0" xmlns="http://www.w3.org/2000/svg"
 width="96.000000pt" height="96.000000pt" viewBox="0 0 96.000000 96.000000"
 preserveAspectRatio="xMidYMid meet">

<g transform="translate(0.000000,96.000000) scale(0.100000,-0.100000)"
fill="#000000" stroke="none">
<path d="M460 736 c-14 -7 -41 -20 -60 -28 -159 -70 -358 -167 -365 -178 -3
-5 2 -13 12 -16 10 -3 30 -12 45 -20 14 -8 32 -14 40 -14 8 0 24 -10 36 -23
19 -20 22 -35 22 -101 0 -106 15 -131 110 -185 61 -34 205 -49 290 -31 63 13
111 34 156 68 31 22 32 25 39 130 7 112 16 142 40 142 13 0 15 -24 15 -144 0
-146 6 -170 35 -146 12 10 15 43 15 158 0 117 3 149 16 163 14 15 13 19 -12
38 -15 11 -35 21 -45 21 -10 0 -20 4 -23 9 -5 8 -326 171 -336 171 -3 0 -16
-6 -30 -14z m208 -111 c95 -47 172 -89 172 -94 0 -9 -19 -19 -150 -79 -36 -16
-95 -44 -132 -60 l-66 -31 -84 35 c-46 19 -92 39 -103 44 -11 5 -38 16 -60 25
-22 9 -53 22 -70 30 -16 7 -38 16 -49 19 -16 5 -16 9 -5 22 8 9 34 25 59 36
25 11 65 29 90 40 25 12 74 34 110 51 36 16 72 33 80 38 8 4 20 8 25 8 6 1 88
-37 183 -84z m-392 -214 c24 -23 208 -92 230 -87 13 4 66 26 119 51 52 25 102
45 110 45 12 0 15 -16 15 -83 0 -74 -3 -86 -22 -103 -35 -30 -59 -41 -127 -58
-76 -19 -138 -20 -211 -2 -124 31 -164 73 -165 169 0 34 5 65 10 69 14 10 29
10 41 -1z"/>
<path d="M363 554 c-11 -30 25 -46 87 -39 30 4 58 12 62 18 5 8 12 6 25 -5 22
-20 47 -9 41 18 -3 17 -15 19 -106 22 -89 3 -103 1 -109 -14z"/>
</g>
</svg>
